<svg width="30" height="35" viewBox="0 0 30 35" fill="none" xmlns="http://www.w3.org/2000/svg">
<path d="M24.6936 4.32258C24.5587 4.32292 24.4263 4.28666 24.31 4.21758C21.1097 2.48508 18.3428 1.75008 15.0256 1.75008C11.7251 1.75008 8.59114 2.57258 5.74058 4.21758C5.33747 4.44799 4.84063 4.28758 4.60699 3.86466C4.5027 3.66054 4.47917 3.42393 4.54119 3.2029C4.6032 2.98187 4.7461 2.793 4.94086 2.67466C8.01524 0.911526 11.4912 -0.0103388 15.0256 8.74671e-05C18.5757 8.74671e-05 21.6765 0.822585 25.0772 2.66008C25.2757 2.77039 25.4234 2.95495 25.4888 3.17415C25.5542 3.39335 25.532 3.62973 25.427 3.83258C25.3639 3.9766 25.2612 4.0993 25.1312 4.18614C25.0013 4.27299 24.8494 4.32034 24.6936 4.32258ZM0.839887 13.5101C0.66669 13.5088 0.498045 13.4538 0.356741 13.3526C0.172899 13.2144 0.0492587 13.0095 0.0118644 12.781C-0.0255298 12.5525 0.0262408 12.3182 0.156271 12.1276C1.8069 9.67756 3.90606 7.75257 6.40761 6.40507C11.6415 3.57299 18.3428 3.55258 23.5932 6.38757C26.094 7.73507 28.1939 9.64256 29.8445 12.0751C29.974 12.2659 30.0255 12.5 29.9881 12.7284C29.9507 12.9567 29.8275 13.1616 29.6441 13.3001C29.5551 13.3673 29.4534 13.4154 29.3453 13.4413C29.2372 13.4672 29.125 13.4704 29.0157 13.4507C28.9063 13.431 28.8021 13.3889 28.7095 13.3268C28.6169 13.2648 28.5379 13.1842 28.4773 13.0901C26.9774 10.8851 25.0772 9.15256 22.8266 7.94507C18.0428 5.37257 11.9248 5.37257 7.15757 7.96257C4.89038 9.18756 2.99025 10.9376 1.49033 13.1396C1.42566 13.2555 1.33086 13.3513 1.2162 13.4166C1.10155 13.4819 0.97141 13.5142 0.839887 13.5101ZM11.2578 34.6354C11.1477 34.6365 11.0386 34.6136 10.9379 34.5683C10.8372 34.523 10.7474 34.4564 10.6744 34.3729C9.22428 32.8475 8.43826 31.8646 7.32414 29.75C6.17036 27.5975 5.574 24.9725 5.574 22.155C5.574 16.9575 9.80766 12.7226 15.0091 12.7226C20.2104 12.7226 24.447 16.9575 24.447 22.155C24.4503 22.2678 24.4311 22.38 24.3907 22.4851C24.3503 22.5903 24.2895 22.6861 24.2118 22.767C24.1341 22.8479 24.0411 22.9123 23.9384 22.9562C23.8357 23.0001 23.7253 23.0227 23.6137 23.0227C23.5022 23.0227 23.3918 23.0001 23.2891 22.9562C23.1864 22.9123 23.0934 22.8479 23.0157 22.767C22.938 22.6861 22.8771 22.5903 22.8367 22.4851C22.7963 22.38 22.7772 22.2678 22.7805 22.155C22.7805 17.92 19.2961 14.4726 15.0127 14.4726C10.7292 14.4726 7.24121 17.92 7.24121 22.155C7.24121 24.675 7.77412 27.0025 8.79089 28.8925C9.85814 30.905 10.5937 31.7625 11.8751 33.1275C12.0271 33.2974 12.1112 33.5182 12.1112 33.7473C12.1112 33.9763 12.0271 34.1972 11.8751 34.3671C11.7115 34.534 11.4902 34.6302 11.2578 34.6354ZM23.2103 31.3979C21.2265 31.3979 19.4764 30.8729 18.0428 29.8404C16.8214 28.9748 15.8236 27.8251 15.1334 26.4881C14.4432 25.1512 14.0808 23.6661 14.0767 22.1579C14.072 22.0443 14.0901 21.9309 14.1299 21.8245C14.1696 21.7181 14.2303 21.6209 14.3082 21.5389C14.386 21.4568 14.4795 21.3915 14.583 21.3469C14.6865 21.3022 14.7978 21.2792 14.9103 21.2792C15.0227 21.2792 15.1341 21.3022 15.2375 21.3469C15.341 21.3915 15.4345 21.4568 15.5124 21.5389C15.5902 21.6209 15.6509 21.7181 15.6907 21.8245C15.7304 21.9309 15.7485 22.0443 15.7439 22.1579C15.7467 23.383 16.0421 24.5891 16.6051 25.6739C17.1681 26.7586 17.9819 27.6897 18.9773 28.3879C20.1607 29.2279 21.5445 29.6275 23.2117 29.6275C23.7924 29.6171 24.3712 29.5586 24.9424 29.4525C25.3924 29.365 25.8258 29.68 25.9087 30.17C25.9509 30.3961 25.9028 30.63 25.7748 30.8203C25.6467 31.0105 25.4493 31.1417 25.2258 31.185C24.5618 31.3177 23.8871 31.388 23.2103 31.395V31.3979ZM19.8593 35C19.786 34.9969 19.7134 34.9852 19.6429 34.965C16.9921 34.195 15.2586 33.1625 13.4414 31.29C11.1071 28.8575 9.82425 25.62 9.82425 22.155C9.82425 19.32 12.1246 17.01 14.9579 17.01C17.7911 17.01 20.0922 19.32 20.0922 22.155C20.0922 24.0275 21.6426 25.55 23.5593 25.55C25.476 25.55 27.0264 24.0275 27.0264 22.155C27.0264 15.5575 21.6087 10.2026 14.9413 10.2026C10.2072 10.2026 5.87326 12.9676 3.92337 17.255C3.27437 18.6725 2.93977 20.335 2.93977 22.155C2.93977 23.52 3.05587 25.6725 4.05606 28.4725C4.22335 28.9275 4.0063 29.435 3.57291 29.5925C3.46991 29.6322 3.36005 29.6504 3.24992 29.646C3.13979 29.6417 3.03167 29.6148 2.93205 29.5672C2.83244 29.5195 2.74338 29.4519 2.67023 29.3686C2.59708 29.2852 2.54135 29.1878 2.50638 29.0821C1.7021 26.8631 1.29008 24.5184 1.28914 22.155C1.28914 20.055 1.67277 18.1446 2.42273 16.485C4.64016 11.5996 9.55743 8.43507 14.9413 8.43507C22.5259 8.43507 28.6936 14.5776 28.6936 22.1375C28.6936 24.9725 26.3933 27.2825 23.5593 27.2825C20.7253 27.2825 18.425 24.9725 18.425 22.1375C18.4257 20.265 16.8753 18.7396 14.9586 18.7396C13.0419 18.7396 11.4915 20.2621 11.4915 22.1346C11.4915 25.1242 12.5919 27.9271 14.6088 30.0271C16.1953 31.6721 17.7096 32.5792 20.0597 33.2646C20.5097 33.3871 20.7599 33.8771 20.6431 34.3321C20.6067 34.5168 20.5093 34.6835 20.3669 34.8049C20.2245 34.9262 20.0455 34.995 19.8593 35Z" fill="#10B981"/>
</svg>
