<svg width="30" height="35" viewBox="0 0 30 35" fill="none" xmlns="http://www.w3.org/2000/svg">
<path d="M24.6936 4.27485C24.5587 4.27519 24.4263 4.23933 24.31 4.17101C21.1097 2.45764 18.3428 1.73076 15.0256 1.73076C11.7251 1.73076 8.59114 2.54418 5.74058 4.17101C5.33747 4.39888 4.84063 4.24024 4.60699 3.82199C4.5027 3.62012 4.47917 3.38612 4.54119 3.16753C4.6032 2.94894 4.7461 2.76216 4.94086 2.64513C8.01524 0.901461 11.4912 -0.0102246 15.0256 8.65013e-05C18.5757 8.65013e-05 21.6765 0.813503 25.0772 2.63071C25.2757 2.7398 25.4234 2.92232 25.4888 3.1391C25.5542 3.35588 25.532 3.58965 25.427 3.79026C25.3639 3.93269 25.2612 4.05404 25.1312 4.13992C25.0013 4.22581 24.8494 4.27263 24.6936 4.27485ZM0.839887 13.3609C0.66669 13.3597 0.498045 13.3053 0.356741 13.2051C0.172899 13.0685 0.0492587 12.8659 0.0118644 12.6399C-0.0255298 12.4139 0.0262408 12.1822 0.156271 11.9937C1.8069 9.57071 3.90606 7.66697 6.40761 6.33435C11.6415 3.53354 18.3428 3.51335 23.5932 6.31704C26.094 7.64966 28.1939 9.5361 29.8445 11.9417C29.974 12.1305 30.0255 12.362 29.9881 12.5878C29.9507 12.8136 29.8274 13.0162 29.6441 13.1532C29.5551 13.2197 29.4534 13.2672 29.3453 13.2929C29.2372 13.3185 29.125 13.3217 29.0157 13.3022C28.9063 13.2828 28.8021 13.2411 28.7095 13.1797C28.6169 13.1183 28.5379 13.0386 28.4773 12.9455C26.9774 10.7649 25.0772 9.05151 22.8266 7.85734C18.0428 5.31325 11.9248 5.31325 7.15757 7.87465C4.89038 9.08612 2.99025 10.8168 1.49033 12.9946C1.42566 13.1092 1.33086 13.2039 1.2162 13.2684C1.10155 13.333 0.97141 13.365 0.839887 13.3609ZM11.2578 34.253C11.1477 34.2541 11.0386 34.2314 10.9379 34.1866C10.8372 34.1418 10.7474 34.0759 10.6744 33.9934C9.22428 32.4848 8.43826 31.5128 7.32414 29.4215C6.17036 27.2928 5.574 24.6968 5.574 21.9104C5.574 16.7703 9.80766 12.5821 15.0091 12.5821C20.2104 12.5821 24.447 16.7703 24.447 21.9104C24.4503 22.0219 24.4311 22.1329 24.3907 22.2369C24.3503 22.3408 24.2895 22.4356 24.2118 22.5156C24.1341 22.5957 24.0411 22.6593 23.9384 22.7027C23.8357 22.7462 23.7253 22.7685 23.6137 22.7685C23.5022 22.7685 23.3918 22.7462 23.2891 22.7027C23.1864 22.6593 23.0934 22.5957 23.0157 22.5156C22.938 22.4356 22.8771 22.3408 22.8367 22.2369C22.7963 22.1329 22.7772 22.0219 22.7805 21.9104C22.7805 17.7222 19.2961 14.3128 15.0127 14.3128C10.7292 14.3128 7.24121 17.7222 7.24121 21.9104C7.24121 24.4026 7.77412 26.7044 8.79089 28.5735C9.85814 30.5638 10.5937 31.4118 11.8751 32.7617C12.0271 32.9297 12.1112 33.1482 12.1112 33.3747C12.1112 33.6012 12.0271 33.8196 11.8751 33.9876C11.7115 34.1527 11.4902 34.2478 11.2578 34.253ZM23.2103 31.0513C21.2265 31.0513 19.4764 30.532 18.0428 29.511C16.8214 28.6549 15.8236 27.5179 15.1334 26.1957C14.4432 24.8735 14.0808 23.4048 14.0767 21.9133C14.072 21.8009 14.0901 21.6887 14.1299 21.5835C14.1696 21.4783 14.2303 21.3822 14.3082 21.301C14.386 21.2199 14.4795 21.1553 14.583 21.1112C14.6865 21.067 14.7978 21.0443 14.9103 21.0443C15.0227 21.0443 15.1341 21.067 15.2375 21.1112C15.341 21.1553 15.4345 21.2199 15.5124 21.301C15.5902 21.3822 15.6509 21.4783 15.6907 21.5835C15.7304 21.6887 15.7485 21.8009 15.7439 21.9133C15.7467 23.1248 16.0421 24.3177 16.6051 25.3904C17.1681 26.4631 17.9819 27.3839 18.9773 28.0745C20.1607 28.9052 21.5445 29.3004 23.2117 29.3004C23.7924 29.2901 24.3712 29.2322 24.9424 29.1273C25.3924 29.0408 25.8258 29.3523 25.9087 29.8369C25.9509 30.0605 25.9028 30.2918 25.7748 30.48C25.6467 30.6681 25.4493 30.7979 25.2258 30.8407C24.5618 30.9719 23.8871 31.0414 23.2103 31.0484V31.0513ZM19.8593 34.6136C19.786 34.6105 19.7134 34.5989 19.6429 34.5789C16.9921 33.8174 15.2586 32.7963 13.4414 30.9445C11.1071 28.5389 9.82425 25.3371 9.82425 21.9104C9.82425 19.1067 12.1246 16.8222 14.9579 16.8222C17.7911 16.8222 20.0922 19.1067 20.0922 21.9104C20.0922 23.7622 21.6426 25.2679 23.5593 25.2679C25.476 25.2679 27.0264 23.7622 27.0264 21.9104C27.0264 15.3858 21.6087 10.0899 14.9413 10.0899C10.2072 10.0899 5.87326 12.8244 3.92337 17.0645C3.27437 18.4664 2.93977 20.1105 2.93977 21.9104C2.93977 23.2603 3.05587 25.3891 4.05606 28.1581C4.22335 28.6081 4.0063 29.11 3.57291 29.2658C3.46991 29.305 3.36005 29.323 3.24992 29.3187C3.13979 29.3144 3.03167 29.2879 2.93205 29.2407C2.83244 29.1936 2.74338 29.1268 2.67023 29.0443C2.59708 28.9619 2.54135 28.8655 2.50638 28.761C1.7021 26.5665 1.29008 24.2476 1.28914 21.9104C1.28914 19.8336 1.67277 17.9443 2.42273 16.303C4.64016 11.4716 9.55743 8.34193 14.9413 8.34193C22.5259 8.34193 28.6936 14.4166 28.6936 21.8931C28.6936 24.6968 26.3933 26.9813 23.5593 26.9813C20.7253 26.9813 18.425 24.6968 18.425 21.8931C18.4257 20.0413 16.8753 18.5327 14.9586 18.5327C13.0419 18.5327 11.4915 20.0384 11.4915 21.8902C11.4915 24.8468 12.5919 27.6187 14.6088 29.6956C16.1953 31.3224 17.7096 32.2195 20.0597 32.8973C20.5097 33.0185 20.7599 33.503 20.6431 33.953C20.6067 34.1357 20.5093 34.3005 20.3669 34.4206C20.2245 34.5406 20.0455 34.6086 19.8593 34.6136Z" fill="#009FFD"/>
</svg>
