<svg width="32" height="30" viewBox="0 0 32 30" fill="none" xmlns="http://www.w3.org/2000/svg">
<path d="M17.4342 14.3299C17.3606 14.1958 17.2686 14.0725 17.161 13.9637L15.933 12.7524C15.8069 12.624 15.6579 12.5202 15.4938 12.4464C15.2355 12.3312 14.9483 12.2968 14.6701 12.3479C14.3919 12.3989 14.1356 12.5329 13.935 12.7323C13.5092 13.1515 12.7298 13.9161 11.3237 15.3055C8.63465 17.9657 3.64162 22.4244 1.38381 24.326C1.27005 24.4212 1.1773 24.539 1.11143 24.6719C1.04556 24.8048 1.00801 24.9499 1.00115 25.0981C0.994286 25.2463 1.01827 25.3942 1.07157 25.5327C1.12488 25.6711 1.20635 25.7969 1.31082 25.9022L3.92217 28.5424C4.02733 28.6478 4.15317 28.7304 4.29179 28.785C4.4304 28.8395 4.5788 28.8647 4.72764 28.8591C4.87649 28.8535 5.02257 28.8172 5.1567 28.7524C5.29083 28.6877 5.41012 28.5959 5.50706 28.4828C7.4649 26.1814 11.9551 21.1844 14.6133 18.5576C15.9786 17.2145 16.7439 16.4431 17.1771 16.0173C17.3919 15.7988 17.5324 15.5181 17.5786 15.2152C17.6248 14.9123 17.5742 14.6025 17.4342 14.3299ZM30.8934 11.2499L28.5961 8.97332C28.561 8.93828 28.5192 8.91077 28.4731 8.89247C28.4271 8.87416 28.3778 8.86545 28.3282 8.86685C28.2788 8.86602 28.2296 8.875 28.1837 8.89327C28.1377 8.91155 28.0958 8.93875 28.0604 8.97332C27.9777 9.05642 27.8771 9.11939 27.7662 9.15735C27.6553 9.19532 27.5372 9.20727 27.421 9.19227C27.121 9.15946 26.8016 9.06639 26.5954 8.86685C26.1267 8.40753 26.6683 7.5036 26.2559 6.92508C25.7848 6.29201 25.2684 5.69406 24.7105 5.13597C24.2378 4.66727 22.3797 2.8949 19.2501 1.61869C18.2514 1.20954 17.1824 0.999376 16.1031 1C14.3388 1 12.9822 1.78742 12.4874 2.23939C12.0937 2.5956 11.6839 3.16139 11.6839 3.16139C11.9205 3.07513 12.1623 3.00357 12.4077 2.94713C12.9196 2.83744 13.4448 2.80382 13.9665 2.84736C15.0083 2.93374 16.2638 3.42253 16.9374 3.95149C18.0228 4.82194 18.4895 5.98634 18.5625 7.48887C18.616 8.60639 17.5427 10.0172 16.5243 11.1675C16.4347 11.2687 16.3875 11.4004 16.3924 11.5355C16.3974 11.6705 16.4542 11.7984 16.5511 11.8927L17.9732 13.3142C18.0723 13.412 18.2056 13.4674 18.3448 13.4687C18.4841 13.4699 18.6183 13.4169 18.7191 13.3209C19.6519 12.4163 20.8009 11.4146 21.4523 11.0135C22.1038 10.6124 22.6295 10.4993 22.8819 10.4718C23.3779 10.4238 23.8765 10.532 24.3081 10.7812C24.3841 10.8242 24.4535 10.8778 24.5143 10.9405C24.9469 11.3798 24.9208 12.0976 24.4808 12.5301L24.3469 12.6567C24.3121 12.6909 24.2845 12.7318 24.2656 12.7768C24.2467 12.8219 24.237 12.8703 24.237 12.9191C24.237 12.968 24.2467 13.0164 24.2656 13.0614C24.2845 13.1065 24.3121 13.1473 24.3469 13.1816L26.6442 15.4582C26.6795 15.4929 26.7214 15.5201 26.7674 15.5383C26.8134 15.5565 26.8626 15.5652 26.9121 15.564C27.0118 15.5654 27.1081 15.5274 27.1799 15.4582L30.8934 11.7855C30.9618 11.7132 31 11.6173 31 11.5177C31 11.4181 30.9618 11.3222 30.8934 11.2499Z" stroke="#009FFD" stroke-linecap="round" stroke-linejoin="round"/>
</svg>
