<svg width="34" height="32" viewBox="0 0 34 32" fill="none" xmlns="http://www.w3.org/2000/svg">
<path d="M18.5298 15.3539C18.4513 15.2094 18.3532 15.0767 18.2384 14.9595L16.9286 13.6552C16.794 13.5169 16.6351 13.4052 16.46 13.3257C16.1845 13.2016 15.8782 13.1646 15.5815 13.2196C15.2847 13.2745 15.0113 13.4188 14.7974 13.6336C14.3431 14.0849 13.5118 14.9083 12.0119 16.4044C9.14363 19.269 3.81773 24.0702 1.40939 26.1179C1.28805 26.2204 1.18912 26.3472 1.11886 26.4903C1.0486 26.6334 1.00854 26.7897 1.00122 26.9492C0.993905 27.1088 1.01949 27.2681 1.07635 27.4172C1.13321 27.5662 1.22011 27.7017 1.33154 27.8151L4.11698 30.6581C4.22915 30.7717 4.36338 30.8606 4.51124 30.9193C4.6591 30.978 4.81739 31.0052 4.97615 30.9992C5.13492 30.9932 5.29074 30.954 5.43382 30.8843C5.57689 30.8145 5.70413 30.7157 5.80753 30.5939C7.89589 28.1158 12.6854 22.7349 15.5209 19.9064C16.9771 18.46 17.7935 17.6294 18.2556 17.1708C18.4847 16.9356 18.6346 16.6333 18.6838 16.3072C18.7331 15.981 18.6792 15.6474 18.5298 15.3539ZM32.8863 12.0372L30.4358 9.5858C30.3984 9.54808 30.3538 9.51846 30.3047 9.49874C30.2555 9.47903 30.203 9.46965 30.1501 9.47116C30.0974 9.47026 30.0449 9.47993 29.9959 9.49961C29.9469 9.51929 29.9022 9.54858 29.8644 9.5858C29.7763 9.67528 29.6689 9.74309 29.5506 9.78398C29.4323 9.82486 29.3063 9.83772 29.1824 9.82157C28.8624 9.78624 28.5217 9.68602 28.3017 9.47116C27.8018 8.97655 28.3796 8.00318 27.9396 7.38023C27.4372 6.69853 26.8862 6.05464 26.2912 5.45369C25.787 4.94898 23.805 3.04046 20.4668 1.66622C19.4015 1.22564 18.2612 0.999328 17.11 1C15.228 1 13.781 1.84791 13.2532 2.33459C12.8333 2.71817 12.3962 3.32743 12.3962 3.32743C12.6486 3.23453 12.9064 3.15748 13.1682 3.0967C13.7142 2.97858 14.2745 2.94238 14.8309 2.98927C15.9422 3.08228 17.2814 3.60862 17.9999 4.17822C19.1576 5.11553 19.6554 6.36938 19.7333 7.98732C19.7904 9.19069 18.6455 10.7099 17.5592 11.9486C17.4636 12.0575 17.4133 12.1994 17.4186 12.3448C17.4239 12.4902 17.4845 12.6279 17.5878 12.7294L19.1048 14.2601C19.2105 14.3655 19.3526 14.4252 19.5012 14.4265C19.6497 14.4279 19.7929 14.3708 19.9004 14.2673C20.8953 13.2932 22.1209 12.2146 22.8158 11.7827C23.5108 11.3508 24.0714 11.229 24.3407 11.1994C24.8698 11.1477 25.4016 11.2642 25.862 11.5325C25.943 11.5788 26.0171 11.6366 26.0819 11.7041C26.5433 12.1771 26.5155 12.95 26.0462 13.4158L25.9034 13.5521C25.8662 13.589 25.8367 13.633 25.8166 13.6815C25.7965 13.73 25.7861 13.7821 25.7861 13.8347C25.7861 13.8873 25.7965 13.9394 25.8166 13.9879C25.8367 14.0365 25.8662 14.0805 25.9034 14.1174L28.3539 16.5688C28.3915 16.6062 28.4361 16.6355 28.4852 16.6551C28.5343 16.6747 28.5868 16.6841 28.6395 16.6827C28.7459 16.6842 28.8486 16.6433 28.9252 16.5688L32.8863 12.614C32.9593 12.5361 33 12.4329 33 12.3256C33 12.2184 32.9593 12.1152 32.8863 12.0372Z" stroke="#10B981" stroke-linecap="round" stroke-linejoin="round"/>
</svg>
