<svg width="520" height="520" viewBox="0 0 458 428" fill="none" xmlns="http://www.w3.org/2000/svg">
<path d="M54.4435 183.805C54.3725 183.088 54.0677 182.532 53.5291 182.136C52.9905 181.739 52.2596 181.541 51.3363 181.541C50.7089 181.541 50.1792 181.629 49.7472 181.807C49.3151 181.979 48.9837 182.218 48.7528 182.526C48.5279 182.834 48.4155 183.183 48.4155 183.574C48.4036 183.899 48.4717 184.183 48.6197 184.426C48.7736 184.669 48.9837 184.879 49.25 185.056C49.5163 185.228 49.8241 185.379 50.1733 185.509C50.5225 185.633 50.8954 185.74 51.2919 185.829L52.9254 186.219C53.7185 186.397 54.4465 186.634 55.1094 186.93C55.7723 187.225 56.3464 187.589 56.8317 188.022C57.317 188.454 57.6928 188.963 57.9592 189.549C58.2314 190.134 58.3705 190.806 58.3764 191.564C58.3705 192.676 58.0864 193.641 57.5241 194.458C56.9678 195.269 56.1629 195.899 55.1094 196.349C54.0618 196.793 52.7982 197.015 51.3185 197.015C49.8507 197.015 48.5723 196.79 47.4833 196.34C46.4002 195.89 45.5539 195.224 44.9442 194.343C44.3406 193.455 44.0239 192.357 43.9943 191.049H47.7141C47.7556 191.658 47.9302 192.167 48.2379 192.576C48.5516 192.978 48.9689 193.283 49.4897 193.49C50.0165 193.692 50.6113 193.792 51.2741 193.792C51.9252 193.792 52.4904 193.697 52.9698 193.508C53.4551 193.319 53.831 193.055 54.0973 192.718C54.3636 192.381 54.4968 191.993 54.4968 191.555C54.4968 191.147 54.3755 190.803 54.1328 190.525C53.8961 190.247 53.5469 190.01 53.0852 189.815C52.6295 189.62 52.0702 189.442 51.4073 189.282L49.4276 188.785C47.8946 188.412 46.6843 187.829 45.7965 187.036C44.9087 186.243 44.4678 185.175 44.4737 183.831C44.4678 182.73 44.7608 181.769 45.3526 180.946C45.9504 180.123 46.7701 179.481 47.8118 179.019C48.8535 178.558 50.0372 178.327 51.3629 178.327C52.7124 178.327 53.8902 178.558 54.8963 179.019C55.9084 179.481 56.6955 180.123 57.2578 180.946C57.8201 181.769 58.1101 182.721 58.1278 183.805H54.4435ZM68.1443 183.121V185.962H59.9323V183.121H68.1443ZM61.7966 179.854H65.5786V192.567C65.5786 192.916 65.6318 193.188 65.7384 193.384C65.8449 193.573 65.9929 193.706 66.1823 193.783C66.3776 193.86 66.6025 193.899 66.857 193.899C67.0345 193.899 67.2121 193.884 67.3896 193.854C67.5672 193.819 67.7033 193.792 67.798 193.774L68.3928 196.589C68.2035 196.648 67.9371 196.716 67.5938 196.793C67.2506 196.876 66.8333 196.926 66.3421 196.944C65.4306 196.979 64.6316 196.858 63.945 196.58C63.2644 196.302 62.7347 195.87 62.3559 195.284C61.9771 194.698 61.7907 193.958 61.7966 193.064V179.854ZM74.4964 197.015C73.6263 197.015 72.851 196.864 72.1704 196.562C71.4897 196.254 70.9511 195.801 70.5546 195.204C70.164 194.6 69.9687 193.848 69.9687 192.949C69.9687 192.191 70.1077 191.555 70.3859 191.04C70.6641 190.525 71.0429 190.111 71.5223 189.797C72.0017 189.483 72.5462 189.247 73.1558 189.087C73.7713 188.927 74.4165 188.815 75.0912 188.75C75.8843 188.667 76.5235 188.59 77.0088 188.519C77.4941 188.442 77.8463 188.329 78.0653 188.181C78.2842 188.033 78.3937 187.814 78.3937 187.524V187.471C78.3937 186.909 78.2162 186.474 77.8611 186.166C77.5119 185.858 77.0147 185.704 76.3696 185.704C75.689 185.704 75.1474 185.855 74.7449 186.157C74.3425 186.453 74.0761 186.826 73.9459 187.276L70.4481 186.992C70.6256 186.163 70.9748 185.447 71.4956 184.843C72.0165 184.234 72.6882 183.766 73.5109 183.441C74.3395 183.109 75.2983 182.943 76.3873 182.943C77.1449 182.943 77.8699 183.032 78.5624 183.21C79.2608 183.387 79.8793 183.663 80.4179 184.035C80.9624 184.408 81.3915 184.888 81.7052 185.474C82.0189 186.054 82.1757 186.749 82.1757 187.56V196.757H78.589V194.866H78.4825C78.2635 195.292 77.9706 195.668 77.6036 195.994C77.2367 196.313 76.7957 196.565 76.2808 196.748C75.7659 196.926 75.1711 197.015 74.4964 197.015ZM75.5795 194.405C76.1358 194.405 76.627 194.295 77.0532 194.076C77.4793 193.851 77.8137 193.549 78.0564 193.171C78.299 192.792 78.4204 192.363 78.4204 191.883V190.436C78.302 190.513 78.1392 190.584 77.9321 190.649C77.7309 190.709 77.503 190.765 77.2485 190.818C76.994 190.865 76.7395 190.91 76.485 190.951C76.2305 190.987 75.9997 191.019 75.7925 191.049C75.3486 191.114 74.961 191.218 74.6295 191.36C74.2981 191.502 74.0406 191.694 73.8572 191.937C73.6737 192.173 73.5819 192.469 73.5819 192.824C73.5819 193.339 73.7684 193.733 74.1412 194.005C74.52 194.272 74.9994 194.405 75.5795 194.405ZM85.1098 196.757V183.121H88.7764V185.5H88.9184C89.167 184.654 89.5843 184.015 90.1702 183.583C90.7561 183.145 91.4308 182.926 92.1943 182.926C92.3837 182.926 92.5879 182.937 92.8069 182.961C93.0259 182.985 93.2182 183.017 93.384 183.059V186.415C93.2064 186.361 92.9608 186.314 92.6471 186.273C92.3334 186.231 92.0464 186.21 91.786 186.21C91.2296 186.21 90.7325 186.332 90.2945 186.574C89.8624 186.811 89.5191 187.143 89.2646 187.569C89.0161 187.995 88.8918 188.486 88.8918 189.042V196.757H85.1098ZM103.276 183.121V185.962H95.0641V183.121H103.276ZM96.9284 179.854H100.71V192.567C100.71 192.916 100.764 193.188 100.87 193.384C100.977 193.573 101.125 193.706 101.314 193.783C101.509 193.86 101.734 193.899 101.989 193.899C102.166 193.899 102.344 193.884 102.521 193.854C102.699 193.819 102.835 193.792 102.93 193.774L103.525 196.589C103.335 196.648 103.069 196.716 102.726 196.793C102.382 196.876 101.965 196.926 101.474 196.944C100.562 196.979 99.7634 196.858 99.0769 196.58C98.3962 196.302 97.8665 195.87 97.4877 195.284C97.109 194.698 96.9225 193.958 96.9284 193.064V179.854ZM111.597 196.757V178.576H118.877C120.214 178.576 121.33 178.774 122.224 179.17C123.117 179.567 123.789 180.117 124.239 180.822C124.689 181.52 124.914 182.325 124.914 183.236C124.914 183.947 124.772 184.571 124.487 185.11C124.203 185.642 123.813 186.08 123.316 186.424C122.824 186.761 122.262 187.001 121.629 187.143V187.32C122.321 187.35 122.969 187.545 123.573 187.906C124.183 188.267 124.677 188.773 125.056 189.424C125.434 190.069 125.624 190.839 125.624 191.732C125.624 192.697 125.384 193.558 124.905 194.316C124.431 195.068 123.73 195.662 122.801 196.1C121.871 196.538 120.726 196.757 119.365 196.757H111.597ZM115.441 193.615H118.575C119.646 193.615 120.427 193.41 120.919 193.002C121.41 192.588 121.655 192.037 121.655 191.351C121.655 190.848 121.534 190.404 121.291 190.019C121.049 189.634 120.703 189.332 120.253 189.114C119.809 188.895 119.279 188.785 118.664 188.785H115.441V193.615ZM115.441 186.184H118.291C118.818 186.184 119.285 186.092 119.693 185.909C120.108 185.719 120.433 185.453 120.67 185.11C120.913 184.766 121.034 184.355 121.034 183.876C121.034 183.219 120.8 182.689 120.333 182.286C119.871 181.884 119.214 181.683 118.362 181.683H115.441V186.184ZM130.389 201.871C129.91 201.871 129.46 201.832 129.04 201.756C128.625 201.685 128.282 201.593 128.01 201.48L128.862 198.657C129.306 198.793 129.705 198.867 130.061 198.879C130.422 198.891 130.732 198.808 130.993 198.631C131.259 198.453 131.475 198.151 131.641 197.725L131.863 197.148L126.971 183.121H130.948L133.771 193.135H133.914L136.763 183.121H140.767L135.467 198.231C135.213 198.965 134.866 199.604 134.428 200.149C133.996 200.699 133.449 201.122 132.786 201.418C132.123 201.72 131.324 201.871 130.389 201.871ZM164.602 184.941H160.714C160.642 184.438 160.497 183.991 160.278 183.6C160.06 183.204 159.778 182.866 159.435 182.588C159.092 182.31 158.695 182.097 158.245 181.949C157.802 181.801 157.319 181.727 156.798 181.727C155.857 181.727 155.038 181.961 154.339 182.428C153.641 182.89 153.099 183.565 152.715 184.453C152.33 185.335 152.138 186.406 152.138 187.666C152.138 188.963 152.33 190.052 152.715 190.933C153.105 191.815 153.65 192.481 154.348 192.931C155.046 193.381 155.854 193.606 156.772 193.606C157.287 193.606 157.763 193.538 158.201 193.402C158.645 193.265 159.039 193.067 159.382 192.807C159.725 192.54 160.009 192.218 160.234 191.839C160.465 191.46 160.625 191.028 160.714 190.543L164.602 190.561C164.501 191.395 164.25 192.2 163.847 192.975C163.451 193.745 162.915 194.434 162.241 195.044C161.572 195.648 160.773 196.127 159.843 196.482C158.92 196.831 157.876 197.006 156.71 197.006C155.088 197.006 153.638 196.639 152.359 195.905C151.087 195.171 150.081 194.109 149.341 192.718C148.607 191.327 148.24 189.643 148.24 187.666C148.24 185.684 148.613 183.997 149.359 182.606C150.104 181.215 151.117 180.156 152.395 179.428C153.673 178.694 155.112 178.327 156.71 178.327C157.763 178.327 158.74 178.475 159.639 178.771C160.545 179.067 161.347 179.499 162.045 180.067C162.744 180.629 163.312 181.319 163.75 182.136C164.194 182.952 164.478 183.887 164.602 184.941ZM167.288 196.757V183.121H170.954V185.5H171.096C171.345 184.654 171.762 184.015 172.348 183.583C172.934 183.145 173.609 182.926 174.372 182.926C174.561 182.926 174.766 182.937 174.985 182.961C175.204 182.985 175.396 183.017 175.562 183.059V186.415C175.384 186.361 175.139 186.314 174.825 186.273C174.511 186.231 174.224 186.21 173.964 186.21C173.407 186.21 172.91 186.332 172.472 186.574C172.04 186.811 171.697 187.143 171.442 187.569C171.194 187.995 171.07 188.486 171.07 189.042V196.757H167.288ZM183.097 197.024C181.694 197.024 180.487 196.74 179.475 196.171C178.468 195.597 177.693 194.786 177.149 193.739C176.604 192.685 176.332 191.439 176.332 190.001C176.332 188.599 176.604 187.368 177.149 186.308C177.693 185.249 178.46 184.423 179.448 183.831C180.442 183.239 181.608 182.943 182.946 182.943C183.845 182.943 184.683 183.088 185.458 183.378C186.24 183.663 186.92 184.092 187.5 184.666C188.086 185.24 188.542 185.962 188.867 186.832C189.193 187.696 189.356 188.708 189.356 189.868V190.907H177.841V188.563H185.796C185.796 188.019 185.677 187.536 185.441 187.116C185.204 186.696 184.875 186.367 184.455 186.131C184.041 185.888 183.558 185.767 183.008 185.767C182.434 185.767 181.925 185.9 181.481 186.166C181.043 186.426 180.7 186.779 180.451 187.223C180.203 187.66 180.075 188.149 180.069 188.687V190.916C180.069 191.59 180.194 192.173 180.442 192.665C180.697 193.156 181.055 193.535 181.517 193.801C181.978 194.067 182.526 194.201 183.159 194.201C183.579 194.201 183.964 194.141 184.313 194.023C184.662 193.905 184.961 193.727 185.21 193.49C185.458 193.254 185.648 192.964 185.778 192.62L189.276 192.851C189.098 193.692 188.734 194.425 188.184 195.053C187.639 195.674 186.935 196.16 186.071 196.509C185.213 196.852 184.221 197.024 183.097 197.024ZM195.712 197.015C194.842 197.015 194.067 196.864 193.386 196.562C192.706 196.254 192.167 195.801 191.77 195.204C191.38 194.6 191.184 193.848 191.184 192.949C191.184 192.191 191.324 191.555 191.602 191.04C191.88 190.525 192.259 190.111 192.738 189.797C193.218 189.483 193.762 189.247 194.372 189.087C194.987 188.927 195.632 188.815 196.307 188.75C197.1 188.667 197.739 188.59 198.225 188.519C198.71 188.442 199.062 188.329 199.281 188.181C199.5 188.033 199.61 187.814 199.61 187.524V187.471C199.61 186.909 199.432 186.474 199.077 186.166C198.728 185.858 198.231 185.704 197.585 185.704C196.905 185.704 196.363 185.855 195.961 186.157C195.558 186.453 195.292 186.826 195.162 187.276L191.664 186.992C191.841 186.163 192.191 185.447 192.711 184.843C193.232 184.234 193.904 183.766 194.727 183.441C195.555 183.109 196.514 182.943 197.603 182.943C198.361 182.943 199.086 183.032 199.778 183.21C200.477 183.387 201.095 183.663 201.634 184.035C202.178 184.408 202.607 184.888 202.921 185.474C203.235 186.054 203.392 186.749 203.392 187.56V196.757H199.805V194.866H199.698C199.479 195.292 199.186 195.668 198.819 195.994C198.452 196.313 198.012 196.565 197.497 196.748C196.982 196.926 196.387 197.015 195.712 197.015ZM196.795 194.405C197.352 194.405 197.843 194.295 198.269 194.076C198.695 193.851 199.03 193.549 199.272 193.171C199.515 192.792 199.636 192.363 199.636 191.883V190.436C199.518 190.513 199.355 190.584 199.148 190.649C198.947 190.709 198.719 190.765 198.464 190.818C198.21 190.865 197.955 190.91 197.701 190.951C197.446 190.987 197.215 191.019 197.008 191.049C196.564 191.114 196.177 191.218 195.845 191.36C195.514 191.502 195.256 191.694 195.073 191.937C194.89 192.173 194.798 192.469 194.798 192.824C194.798 193.339 194.984 193.733 195.357 194.005C195.736 194.272 196.215 194.405 196.795 194.405ZM213.579 183.121V185.962H205.367V183.121H213.579ZM207.231 179.854H211.013V192.567C211.013 192.916 211.066 193.188 211.173 193.384C211.279 193.573 211.427 193.706 211.617 193.783C211.812 193.86 212.037 193.899 212.292 193.899C212.469 193.899 212.647 193.884 212.824 193.854C213.002 193.819 213.138 193.792 213.233 193.774L213.827 196.589C213.638 196.648 213.372 196.716 213.028 196.793C212.685 196.876 212.268 196.926 211.777 196.944C210.865 196.979 210.066 196.858 209.38 196.58C208.699 196.302 208.169 195.87 207.79 195.284C207.412 194.698 207.225 193.958 207.231 193.064V179.854ZM216.042 196.757V183.121H219.824V196.757H216.042ZM217.942 181.363C217.38 181.363 216.898 181.177 216.495 180.804C216.099 180.425 215.9 179.972 215.9 179.446C215.9 178.925 216.099 178.478 216.495 178.105C216.898 177.726 217.38 177.537 217.942 177.537C218.505 177.537 218.984 177.726 219.381 178.105C219.783 178.478 219.984 178.925 219.984 179.446C219.984 179.972 219.783 180.425 219.381 180.804C218.984 181.177 218.505 181.363 217.942 181.363ZM226.636 188.874V196.757H222.854V183.121H226.458V185.527H226.618C226.92 184.734 227.426 184.106 228.136 183.645C228.847 183.177 229.708 182.943 230.72 182.943C231.667 182.943 232.492 183.151 233.197 183.565C233.901 183.979 234.448 184.571 234.839 185.34C235.23 186.104 235.425 187.015 235.425 188.075V196.757H231.643V188.75C231.649 187.915 231.436 187.264 231.004 186.796C230.572 186.323 229.977 186.086 229.219 186.086C228.71 186.086 228.261 186.196 227.87 186.415C227.485 186.634 227.183 186.953 226.964 187.373C226.751 187.788 226.642 188.288 226.636 188.874ZM244.549 202.155C243.324 202.155 242.273 201.986 241.398 201.649C240.528 201.318 239.835 200.865 239.32 200.291C238.805 199.717 238.471 199.071 238.317 198.355L241.815 197.885C241.921 198.157 242.09 198.412 242.321 198.648C242.552 198.885 242.856 199.074 243.235 199.216C243.62 199.364 244.088 199.438 244.638 199.438C245.461 199.438 246.138 199.237 246.671 198.835C247.21 198.438 247.479 197.772 247.479 196.837V194.343H247.319C247.153 194.721 246.905 195.079 246.573 195.417C246.242 195.754 245.816 196.029 245.295 196.242C244.774 196.455 244.153 196.562 243.431 196.562C242.407 196.562 241.474 196.325 240.634 195.852C239.8 195.372 239.134 194.641 238.637 193.659C238.145 192.671 237.9 191.422 237.9 189.913C237.9 188.368 238.151 187.078 238.654 186.042C239.157 185.006 239.826 184.231 240.661 183.716C241.501 183.201 242.421 182.943 243.422 182.943C244.185 182.943 244.824 183.074 245.339 183.334C245.854 183.589 246.269 183.908 246.582 184.293C246.902 184.672 247.147 185.044 247.319 185.411H247.461V183.121H251.216V196.89C251.216 198.051 250.932 199.021 250.364 199.802C249.796 200.584 249.009 201.17 248.003 201.56C247.002 201.957 245.851 202.155 244.549 202.155ZM244.629 193.721C245.239 193.721 245.754 193.57 246.174 193.268C246.6 192.961 246.925 192.523 247.15 191.954C247.381 191.38 247.497 190.694 247.497 189.895C247.497 189.096 247.384 188.403 247.159 187.817C246.934 187.225 246.609 186.767 246.183 186.441C245.757 186.116 245.239 185.953 244.629 185.953C244.008 185.953 243.484 186.122 243.058 186.459C242.632 186.79 242.309 187.252 242.09 187.844C241.871 188.436 241.762 189.119 241.762 189.895C241.762 190.682 241.871 191.363 242.09 191.937C242.315 192.505 242.637 192.946 243.058 193.259C243.484 193.567 244.008 193.721 244.629 193.721ZM259.018 178.576H263.324L267.47 186.406H267.647L271.793 178.576H276.099L269.467 190.33V196.757H265.65V190.33L259.018 178.576ZM281.432 197.024C280.053 197.024 278.861 196.731 277.854 196.145C276.854 195.553 276.082 194.73 275.537 193.677C274.993 192.617 274.721 191.389 274.721 189.992C274.721 188.584 274.993 187.353 275.537 186.299C276.082 185.24 276.854 184.417 277.854 183.831C278.861 183.239 280.053 182.943 281.432 182.943C282.811 182.943 284.001 183.239 285.001 183.831C286.007 184.417 286.783 185.24 287.327 186.299C287.872 187.353 288.144 188.584 288.144 189.992C288.144 191.389 287.872 192.617 287.327 193.677C286.783 194.73 286.007 195.553 285.001 196.145C284.001 196.731 282.811 197.024 281.432 197.024ZM281.45 194.094C282.077 194.094 282.601 193.916 283.021 193.561C283.442 193.2 283.758 192.709 283.971 192.088C284.19 191.466 284.3 190.759 284.3 189.966C284.3 189.173 284.19 188.465 283.971 187.844C283.758 187.223 283.442 186.731 283.021 186.37C282.601 186.009 282.077 185.829 281.45 185.829C280.817 185.829 280.284 186.009 279.852 186.37C279.426 186.731 279.103 187.223 278.884 187.844C278.671 188.465 278.565 189.173 278.565 189.966C278.565 190.759 278.671 191.466 278.884 192.088C279.103 192.709 279.426 193.2 279.852 193.561C280.284 193.916 280.817 194.094 281.45 194.094ZM299.348 190.951V183.121H303.13V196.757H299.499V194.28H299.357C299.049 195.079 298.537 195.722 297.821 196.207C297.11 196.692 296.243 196.935 295.219 196.935C294.308 196.935 293.506 196.728 292.814 196.313C292.121 195.899 291.58 195.31 291.189 194.547C290.804 193.783 290.609 192.869 290.603 191.803V183.121H294.385V191.129C294.391 191.934 294.607 192.57 295.033 193.038C295.459 193.505 296.03 193.739 296.746 193.739C297.202 193.739 297.628 193.635 298.025 193.428C298.421 193.215 298.741 192.901 298.984 192.487C299.232 192.073 299.354 191.561 299.348 190.951ZM306.155 196.757V183.121H309.821V185.5H309.963C310.212 184.654 310.629 184.015 311.215 183.583C311.801 183.145 312.476 182.926 313.239 182.926C313.429 182.926 313.633 182.937 313.852 182.961C314.071 182.985 314.263 183.017 314.429 183.059V186.415C314.251 186.361 314.006 186.314 313.692 186.273C313.378 186.231 313.091 186.21 312.831 186.21C312.275 186.21 311.777 186.332 311.339 186.574C310.907 186.811 310.564 187.143 310.31 187.569C310.061 187.995 309.937 188.486 309.937 189.042V196.757H306.155ZM322.241 196.757V178.576H329.415C330.794 178.576 331.969 178.839 332.939 179.366C333.91 179.886 334.65 180.611 335.159 181.541C335.674 182.464 335.931 183.529 335.931 184.737C335.931 185.944 335.671 187.009 335.15 187.933C334.629 188.856 333.874 189.575 332.886 190.09C331.903 190.605 330.714 190.862 329.317 190.862H324.745V187.782H328.696C329.435 187.782 330.045 187.655 330.524 187.4C331.01 187.14 331.371 186.782 331.608 186.326C331.85 185.864 331.972 185.335 331.972 184.737C331.972 184.133 331.85 183.606 331.608 183.156C331.371 182.701 331.01 182.349 330.524 182.1C330.039 181.846 329.424 181.718 328.678 181.718H326.085V196.757H322.241ZM338.357 196.757V183.121H342.023V185.5H342.165C342.414 184.654 342.831 184.015 343.417 183.583C344.003 183.145 344.678 182.926 345.441 182.926C345.631 182.926 345.835 182.937 346.054 182.961C346.273 182.985 346.465 183.017 346.631 183.059V186.415C346.453 186.361 346.208 186.314 345.894 186.273C345.58 186.231 345.293 186.21 345.033 186.21C344.477 186.21 343.98 186.332 343.542 186.574C343.109 186.811 342.766 187.143 342.512 187.569C342.263 187.995 342.139 188.486 342.139 189.042V196.757H338.357ZM354.113 197.024C352.734 197.024 351.541 196.731 350.535 196.145C349.535 195.553 348.762 194.73 348.218 193.677C347.673 192.617 347.401 191.389 347.401 189.992C347.401 188.584 347.673 187.353 348.218 186.299C348.762 185.24 349.535 184.417 350.535 183.831C351.541 183.239 352.734 182.943 354.113 182.943C355.492 182.943 356.681 183.239 357.682 183.831C358.688 184.417 359.463 185.24 360.008 186.299C360.552 187.353 360.824 188.584 360.824 189.992C360.824 191.389 360.552 192.617 360.008 193.677C359.463 194.73 358.688 195.553 357.682 196.145C356.681 196.731 355.492 197.024 354.113 197.024ZM354.131 194.094C354.758 194.094 355.282 193.916 355.702 193.561C356.122 193.2 356.439 192.709 356.652 192.088C356.871 191.466 356.98 190.759 356.98 189.966C356.98 189.173 356.871 188.465 356.652 187.844C356.439 187.223 356.122 186.731 355.702 186.37C355.282 186.009 354.758 185.829 354.131 185.829C353.497 185.829 352.965 186.009 352.533 186.37C352.106 186.731 351.784 187.223 351.565 187.844C351.352 188.465 351.245 189.173 351.245 189.966C351.245 190.759 351.352 191.466 351.565 192.088C351.784 192.709 352.106 193.2 352.533 193.561C352.965 193.916 353.497 194.094 354.131 194.094ZM370.617 183.121V185.962H362.201V183.121H370.617ZM364.127 196.757V182.136C364.127 181.147 364.319 180.327 364.704 179.676C365.095 179.025 365.627 178.537 366.302 178.212C366.977 177.886 367.743 177.723 368.601 177.723C369.181 177.723 369.711 177.768 370.191 177.856C370.676 177.945 371.037 178.025 371.274 178.096L370.599 180.937C370.451 180.89 370.268 180.845 370.049 180.804C369.835 180.762 369.617 180.742 369.392 180.742C368.835 180.742 368.448 180.872 368.229 181.132C368.01 181.387 367.9 181.745 367.9 182.207V196.757H364.127ZM372.927 196.757V183.121H376.709V196.757H372.927ZM374.827 181.363C374.265 181.363 373.782 181.177 373.38 180.804C372.983 180.425 372.785 179.972 372.785 179.446C372.785 178.925 372.983 178.478 373.38 178.105C373.782 177.726 374.265 177.537 374.827 177.537C375.389 177.537 375.869 177.726 376.265 178.105C376.668 178.478 376.869 178.925 376.869 179.446C376.869 179.972 376.668 180.425 376.265 180.804C375.869 181.177 375.389 181.363 374.827 181.363ZM383.521 178.576V196.757H379.739V178.576H383.521ZM392.765 197.024C391.362 197.024 390.155 196.74 389.143 196.171C388.136 195.597 387.361 194.786 386.817 193.739C386.272 192.685 386 191.439 386 190.001C386 188.599 386.272 187.368 386.817 186.308C387.361 185.249 388.128 184.423 389.116 183.831C390.11 183.239 391.276 182.943 392.614 182.943C393.513 182.943 394.351 183.088 395.126 183.378C395.907 183.663 396.588 184.092 397.168 184.666C397.754 185.24 398.21 185.962 398.535 186.832C398.861 187.696 399.024 188.708 399.024 189.868V190.907H387.509V188.563H395.464C395.464 188.019 395.345 187.536 395.108 187.116C394.872 186.696 394.543 186.367 394.123 186.131C393.709 185.888 393.226 185.767 392.676 185.767C392.102 185.767 391.593 185.9 391.149 186.166C390.711 186.426 390.368 186.779 390.119 187.223C389.871 187.66 389.743 188.149 389.737 188.687V190.916C389.737 191.59 389.862 192.173 390.11 192.665C390.365 193.156 390.723 193.535 391.184 193.801C391.646 194.067 392.194 194.201 392.827 194.201C393.247 194.201 393.632 194.141 393.981 194.023C394.33 193.905 394.629 193.727 394.878 193.49C395.126 193.254 395.316 192.964 395.446 192.62L398.944 192.851C398.766 193.692 398.402 194.425 397.852 195.053C397.307 195.674 396.603 196.16 395.739 196.509C394.881 196.852 393.889 197.024 392.765 197.024ZM411.797 178.576L411.45 191.306H408.201L407.846 178.576H411.797ZM409.826 196.988C409.24 196.988 408.737 196.781 408.316 196.367C407.896 195.946 407.689 195.443 407.695 194.857C407.689 194.277 407.896 193.78 408.316 193.366C408.737 192.952 409.24 192.745 409.826 192.745C410.388 192.745 410.882 192.952 411.308 193.366C411.734 193.78 411.95 194.277 411.956 194.857C411.95 195.248 411.847 195.606 411.646 195.932C411.45 196.251 411.193 196.509 410.873 196.704C410.554 196.893 410.205 196.988 409.826 196.988Z" fill="black"/>
<path d="M379.434 113.33C379.361 113.196 379.269 113.073 379.161 112.964L377.933 111.752C377.807 111.624 377.658 111.52 377.494 111.446C377.235 111.331 376.948 111.297 376.67 111.348C376.392 111.399 376.136 111.533 375.935 111.732C375.509 112.151 374.73 112.916 373.324 114.306C370.635 116.966 365.642 121.424 363.384 123.326C363.27 123.421 363.177 123.539 363.111 123.672C363.046 123.805 363.008 123.95 363.001 124.098C362.994 124.246 363.018 124.394 363.072 124.533C363.125 124.671 363.206 124.797 363.311 124.902L365.922 127.542C366.027 127.648 366.153 127.73 366.292 127.785C366.43 127.839 366.579 127.865 366.728 127.859C366.876 127.854 367.023 127.817 367.157 127.752C367.291 127.688 367.41 127.596 367.507 127.483C369.465 125.181 373.955 120.184 376.613 117.558C377.979 116.214 378.744 115.443 379.177 115.017C379.392 114.799 379.532 114.518 379.579 114.215C379.625 113.912 379.574 113.602 379.434 113.33ZM392.893 110.25L390.596 107.973C390.561 107.938 390.519 107.911 390.473 107.892C390.427 107.874 390.378 107.865 390.328 107.867C390.279 107.866 390.23 107.875 390.184 107.893C390.138 107.912 390.096 107.939 390.06 107.973C389.978 108.056 389.877 108.119 389.766 108.157C389.655 108.195 389.537 108.207 389.421 108.192C389.121 108.159 388.802 108.066 388.595 107.867C388.127 107.408 388.668 106.504 388.256 105.925C387.785 105.292 387.268 104.694 386.711 104.136C386.238 103.667 384.38 101.895 381.25 100.619C380.251 100.21 379.182 99.9994 378.103 100C376.339 100 374.982 100.787 374.487 101.239C374.094 101.596 373.684 102.161 373.684 102.161C373.921 102.075 374.162 102.004 374.408 101.947C374.92 101.837 375.445 101.804 375.966 101.847C377.008 101.934 378.264 102.423 378.937 102.951C380.023 103.822 380.489 104.986 380.562 106.489C380.616 107.606 379.543 109.017 378.524 110.168C378.435 110.269 378.387 110.4 378.392 110.535C378.397 110.67 378.454 110.798 378.551 110.893L379.973 112.314C380.072 112.412 380.206 112.467 380.345 112.469C380.484 112.47 380.618 112.417 380.719 112.321C381.652 111.416 382.801 110.415 383.452 110.014C384.104 109.612 384.629 109.499 384.882 109.472C385.378 109.424 385.877 109.532 386.308 109.781C386.384 109.824 386.454 109.878 386.514 109.941C386.947 110.38 386.921 111.098 386.481 111.53L386.347 111.657C386.312 111.691 386.284 111.732 386.266 111.777C386.247 111.822 386.237 111.87 386.237 111.919C386.237 111.968 386.247 112.016 386.266 112.061C386.284 112.106 386.312 112.147 386.347 112.182L388.644 114.458C388.679 114.493 388.721 114.52 388.767 114.538C388.813 114.557 388.863 114.565 388.912 114.564C389.012 114.565 389.108 114.527 389.18 114.458L392.893 110.786C392.962 110.713 393 110.617 393 110.518C393 110.418 392.962 110.322 392.893 110.25Z" stroke="#009FFD" stroke-linecap="round" stroke-linejoin="round"/>
<path d="M24.6936 307.275C24.5587 307.275 24.4263 307.239 24.31 307.171C21.1097 305.458 18.3428 304.731 15.0256 304.731C11.7251 304.731 8.59114 305.544 5.74058 307.171C5.33747 307.399 4.84063 307.24 4.60699 306.822C4.5027 306.62 4.47917 306.386 4.54119 306.168C4.6032 305.949 4.7461 305.762 4.94086 305.645C8.01524 303.901 11.4912 302.99 15.0256 303C18.5757 303 21.6765 303.814 25.0772 305.631C25.2757 305.74 25.4234 305.922 25.4888 306.139C25.5542 306.356 25.532 306.59 25.427 306.79C25.3639 306.933 25.2612 307.054 25.1312 307.14C25.0013 307.226 24.8494 307.273 24.6936 307.275ZM0.839887 316.361C0.66669 316.36 0.498045 316.305 0.356741 316.205C0.172899 316.068 0.0492587 315.866 0.0118644 315.64C-0.0255298 315.414 0.0262408 315.182 0.156271 314.994C1.8069 312.571 3.90606 310.667 6.40761 309.334C11.6415 306.534 18.3428 306.513 23.5932 309.317C26.094 310.65 28.1939 312.536 29.8445 314.942C29.974 315.13 30.0255 315.362 29.9881 315.588C29.9507 315.814 29.8275 316.016 29.6441 316.153C29.5551 316.22 29.4534 316.267 29.3453 316.293C29.2372 316.319 29.125 316.322 29.0157 316.302C28.9063 316.283 28.8021 316.241 28.7095 316.18C28.6169 316.118 28.5379 316.039 28.4773 315.946C26.9774 313.765 25.0772 312.052 22.8266 310.857C18.0428 308.313 11.9248 308.313 7.15757 310.875C4.89038 312.086 2.99025 313.817 1.49033 315.995C1.42566 316.109 1.33086 316.204 1.2162 316.268C1.10155 316.333 0.97141 316.365 0.839887 316.361ZM11.2578 337.253C11.1477 337.254 11.0386 337.231 10.9379 337.187C10.8372 337.142 10.7474 337.076 10.6744 336.993C9.22428 335.485 8.43826 334.513 7.32414 332.422C6.17036 330.293 5.574 327.697 5.574 324.91C5.574 319.77 9.80766 315.582 15.0091 315.582C20.2104 315.582 24.447 319.77 24.447 324.91C24.4503 325.022 24.4311 325.133 24.3907 325.237C24.3503 325.341 24.2895 325.436 24.2118 325.516C24.1341 325.596 24.0411 325.659 23.9384 325.703C23.8357 325.746 23.7253 325.769 23.6137 325.769C23.5022 325.769 23.3918 325.746 23.2891 325.703C23.1864 325.659 23.0934 325.596 23.0157 325.516C22.938 325.436 22.8771 325.341 22.8367 325.237C22.7963 325.133 22.7772 325.022 22.7805 324.91C22.7805 320.722 19.2961 317.313 15.0127 317.313C10.7292 317.313 7.24121 320.722 7.24121 324.91C7.24121 327.403 7.77412 329.704 8.79089 331.574C9.85814 333.564 10.5937 334.412 11.8751 335.762C12.0271 335.93 12.1112 336.148 12.1112 336.375C12.1112 336.601 12.0271 336.82 11.8751 336.988C11.7115 337.153 11.4902 337.248 11.2578 337.253ZM23.2103 334.051C21.2265 334.051 19.4764 333.532 18.0428 332.511C16.8214 331.655 15.8236 330.518 15.1334 329.196C14.4432 327.873 14.0808 326.405 14.0767 324.913C14.072 324.801 14.0901 324.689 14.1299 324.584C14.1696 324.478 14.2303 324.382 14.3082 324.301C14.386 324.22 14.4795 324.155 14.583 324.111C14.6865 324.067 14.7978 324.044 14.9103 324.044C15.0227 324.044 15.1341 324.067 15.2375 324.111C15.341 324.155 15.4345 324.22 15.5124 324.301C15.5902 324.382 15.6509 324.478 15.6907 324.584C15.7304 324.689 15.7485 324.801 15.7439 324.913C15.7467 326.125 16.0421 327.318 16.6051 328.39C17.1681 329.463 17.9819 330.384 18.9773 331.074C20.1607 331.905 21.5445 332.3 23.2117 332.3C23.7924 332.29 24.3712 332.232 24.9424 332.127C25.3924 332.041 25.8258 332.352 25.9087 332.837C25.9509 333.061 25.9028 333.292 25.7748 333.48C25.6467 333.668 25.4493 333.798 25.2258 333.841C24.5618 333.972 23.8871 334.041 23.2103 334.048V334.051ZM19.8593 337.614C19.786 337.611 19.7134 337.599 19.6429 337.579C16.9921 336.817 15.2586 335.796 13.4414 333.945C11.1071 331.539 9.82425 328.337 9.82425 324.91C9.82425 322.107 12.1246 319.822 14.9579 319.822C17.7911 319.822 20.0922 322.107 20.0922 324.91C20.0922 326.762 21.6426 328.268 23.5593 328.268C25.476 328.268 27.0264 326.762 27.0264 324.91C27.0264 318.386 21.6087 313.09 14.9413 313.09C10.2072 313.09 5.87326 315.824 3.92337 320.065C3.27437 321.466 2.93977 323.111 2.93977 324.91C2.93977 326.26 3.05587 328.389 4.05606 331.158C4.22335 331.608 4.0063 332.11 3.57291 332.266C3.46991 332.305 3.36005 332.323 3.24992 332.319C3.13979 332.314 3.03167 332.288 2.93205 332.241C2.83244 332.194 2.74338 332.127 2.67023 332.044C2.59708 331.962 2.54135 331.866 2.50638 331.761C1.7021 329.567 1.29008 327.248 1.28914 324.91C1.28914 322.834 1.67277 320.944 2.42273 319.303C4.64016 314.472 9.55743 311.342 14.9413 311.342C22.5259 311.342 28.6936 317.417 28.6936 324.893C28.6936 327.697 26.3933 329.981 23.5593 329.981C20.7253 329.981 18.425 327.697 18.425 324.893C18.4257 323.041 16.8753 321.533 14.9586 321.533C13.0419 321.533 11.4915 323.038 11.4915 324.89C11.4915 327.847 12.5919 330.619 14.6088 332.696C16.1953 334.322 17.7096 335.219 20.0597 335.897C20.5097 336.018 20.7599 336.503 20.6431 336.953C20.6067 337.136 20.5093 337.301 20.3669 337.421C20.2245 337.541 20.0455 337.609 19.8593 337.614Z" fill="#009FFD"/>
</svg>
