<svg width="20" height="20" viewBox="0 0 30 30" fill="none" xmlns="http://www.w3.org/2000/svg">
<path d="M27.6006 0.822754H2.56339C1.19531 0.822754 0 1.77707 0 3.08781V27.4146C0 28.7324 1.19531 29.9068 2.56339 29.9068H27.5933C28.9687 29.9068 30 28.7246 30 27.4146V3.08781C30.008 1.77707 28.9687 0.822754 27.6006 0.822754ZM9.29932 25.0658H5.00155V12.111H9.29932V25.0658ZM7.2991 10.1413H7.26829C5.89285 10.1413 5.00222 9.14872 5.00222 7.90615C5.00222 6.64087 5.91629 5.67161 7.32253 5.67161C8.72878 5.67161 9.58927 6.63373 9.62007 7.90615C9.6194 9.14872 8.72878 10.1413 7.2991 10.1413ZM25.0064 25.0658H20.7087V17.9824C20.7087 16.2854 20.0832 15.1259 18.5283 15.1259C17.3404 15.1259 16.6373 15.9049 16.3245 16.6638C16.2073 16.9365 16.1759 17.3078 16.1759 17.687V25.0658H11.8781V12.111H16.1759V13.9138C16.8013 13.0504 17.7783 11.8078 20.0518 11.8078C22.873 11.8078 25.0071 13.6107 25.0071 17.4974L25.0064 25.0658Z" fill="black"/>
</svg>
