<svg width="26" height="20" viewBox="0 0 36 30" fill="none" xmlns="http://www.w3.org/2000/svg">
<path d="M35.1358 8.70927C33.9042 9.04949 32.6543 9.1786 31.4257 9.09251C32.8798 8.47667 34.1444 7.27169 34.9823 5.70356C33.6079 6.28463 32.182 6.59232 30.7659 6.61344C30.3657 5.77196 29.817 5.0526 29.1529 4.49907C28.4889 3.94554 27.7235 3.5694 26.9032 3.39353C23.5839 2.67404 20.1579 5.29967 19.2459 9.25409C19.1167 9.80363 19.0422 10.3633 19.0241 10.9212C16.6751 10.27 14.5141 9.02903 12.6794 7.27757C10.8447 5.52611 9.37661 3.30275 8.36914 0.749753C7.5845 1.72373 7.01572 2.90578 6.72225 4.17236C6.14947 6.65589 6.71241 9.08292 8.0303 10.719C7.08009 10.4841 6.2139 9.97424 5.50526 9.23258L5.4848 9.32128C4.6836 12.7953 6.09087 16.1348 8.68388 17.3876C8.12928 17.4425 7.57792 17.4117 7.04373 17.296C6.66452 17.2146 6.29663 17.0881 5.94542 16.9182C6.05215 19.9293 7.79563 22.4803 10.4127 23.1097C7.81464 24.6427 4.94136 25.1528 2.24444 24.5599C1.7656 24.4552 1.29498 24.3169 0.834942 24.1457C3.09043 26.8653 6.02263 28.6808 9.28253 29.3761C20.3444 31.7739 28.9055 22.1667 31.0892 12.6983C31.1608 12.3878 31.2257 12.0759 31.2834 11.7702C32.6895 11.0134 33.9941 9.97683 35.1358 8.70927Z" fill="black"/>
</svg>
