<?xml version="1.0" encoding="UTF-8" standalone="no"?>
<svg
   version="1.1"
   id="Layer_1"
   x="0px"
   y="0px"
   width="330.60101"
   viewBox="0 0 551.00169 175.14667"
   enable-background="new 0 0 577 199"
   xml:space="preserve"
   sodipodi:docname="brikool-logo-dark.svg"
   height="105.088"
   inkscape:version="1.4 (e7c3feb100, 2024-10-09)"
   xmlns:inkscape="http://www.inkscape.org/namespaces/inkscape"
   xmlns:sodipodi="http://sodipodi.sourceforge.net/DTD/sodipodi-0.dtd"
   xmlns="http://www.w3.org/2000/svg"
   xmlns:svg="http://www.w3.org/2000/svg"><defs
   id="defs30" /><sodipodi:namedview
   id="namedview30"
   pagecolor="#ffffff"
   bordercolor="#000000"
   borderopacity="0.25"
   inkscape:showpageshadow="2"
   inkscape:pageopacity="0.0"
   inkscape:pagecheckerboard="0"
   inkscape:deskcolor="#d1d1d1"
   inkscape:zoom="2.3838588"
   inkscape:cx="140.7382"
   inkscape:cy="29.783643"
   inkscape:window-width="1920"
   inkscape:window-height="1011"
   inkscape:window-x="0"
   inkscape:window-y="0"
   inkscape:window-maximized="1"
   inkscape:current-layer="Layer_1" />







<path
   fill="#343434"
   opacity="1"
   stroke="none"
   d="m 32.731767,29.290117 c 3.9301,-2.284016 7.628926,-4.310486 11.5178,-6.558102 0.590046,-0.394291 0.990051,-0.567432 1.966053,-1.083751 9.738525,-5.688744 18.901054,-11.034316 28.063583,-16.3798903 2.150815,-0.9079944 3.586456,0.497532 5.0466,1.330309 17.906333,10.2127393 35.788107,20.4707963 53.541357,30.9457253 1.58327,0.93417 3.04184,3.413838 3.15551,5.261998 0.38784,6.306503 0.29014,12.657112 0.0439,18.97789 -0.0581,1.491172 -1.03716,3.60337 -2.24321,4.294609 -18.74775,10.745109 -37.601844,21.30468 -56.442236,31.887796 -0.238632,0.13406 -0.6185,0.0167 -1.405685,0.0167 0,-7.63552 -0.130364,-15.230617 0.13784,-22.811618 0.04114,-1.162796 1.726563,-2.579522 2.978943,-3.338524 C 90.175596,65.116281 101.33291,58.521295 112.94904,51.604051 100.91421,44.769315 89.303366,38.107652 77.584135,31.642423 76.597181,31.09794 74.656454,31.466997 73.541563,32.09313 58.903074,40.314233 44.278913,48.565759 29.830042,57.112077 c -1.463711,0.865769 -2.486386,3.689263 -2.499154,5.61232 -0.164833,24.820603 -0.109066,49.642673 -0.109073,74.464373 0,1.77916 4e-6,3.55832 4e-6,6.07044 -6.961693,-3.97905 -13.323468,-7.49565 -19.5203461,-11.28212 -0.963316,-0.58862 -1.656262,-2.40836 -1.660639,-3.66164 -0.09368,-26.82044 -0.116911,-53.641552 0.04691,-80.461311 0.0094,-1.546082 1.35157,-3.691929 2.707857,-4.521519 C 16.591221,38.564317 24.578327,34.109071 32.731769,29.290117 Z"
   id="path8"
   sodipodi:nodetypes="sccccscssscsccssscscssccss"
   style="fill:#ffffff;fill-opacity:1" />
<path
   fill="#13ba83"
   opacity="1"
   stroke="none"
   d="m 62.943945,81.102121 c -5.4e-5,17.659626 0.103538,34.820389 -0.08508,51.977949 -0.03907,3.55457 1.21463,5.38268 3.972878,7.64139 6.414062,5.25239 11.388523,4.22957 18.368189,0.11406 11.935876,-7.0379 23.708138,-13.67408 35.501038,-21.33167 2.86274,-1.85889 3.86783,-3.4904 4.06288,-7.02364 0.12615,-2.28518 0.12581,-4.30021 -0.17084,-6.46053 -0.25339,-1.84526 -1.5567,-3.88214 -3.02362,-4.91112 -3.37498,-2.367423 -7.14601,-4.170239 -11.35403,-6.538599 7.04735,-4.2184 13.5526,-8.181524 20.15568,-11.97431 0.79604,-0.457237 2.33315,-0.365074 3.16585,0.107895 4.04816,2.299301 8.04341,4.712303 11.88854,7.332785 0.86384,0.58872 1.47416,2.16649 1.48446,3.29547 0.10639,11.660909 0.15378,23.324689 -0.0473,34.983099 -0.0248,1.43734 -1.24321,3.45525 -2.4995,4.18076 -21.7527,12.56227 -43.56965,25.01474 -65.484938,37.2906 -1.512116,0.84702 -4.293961,0.8304 -5.831291,0.002 -10.102105,-5.44445 -20.07795,-11.13241 -29.943653,-16.99557 -1.36895,-0.81357 -2.69825,-3.02406 -2.708066,-4.59624 -0.165443,-26.48811 -0.148105,-52.977649 -0.0352,-79.46629 0.0059,-1.391754 0.84496,-3.411911 1.937695,-4.063324 6.534298,-3.895286 13.256916,-7.47467 20.646336,-11.563965 v 27.99939 z"
   id="path9"
   sodipodi:nodetypes="cscssssscssssssscsccsccc" />





















<text
   xml:space="preserve"
   style="font-style:normal;font-variant:normal;font-weight:normal;font-stretch:normal;font-size:97.7778px;font-family:Heavitas;-inkscape-font-specification:'Heavitas, Normal';font-variant-ligatures:normal;font-variant-caps:normal;font-variant-numeric:normal;font-variant-east-asian:normal;text-align:start;writing-mode:lr-tb;direction:ltr;text-anchor:start;fill:#ffffff;fill-opacity:1;fill-rule:evenodd;stroke-width:1.33333;stroke-linecap:round;stroke-linejoin:round;paint-order:markers fill stroke"
   x="155.38943"
   y="137.67033"
   id="text30"><tspan
     sodipodi:role="line"
     id="tspan30"
     style="font-style:normal;font-variant:normal;font-weight:normal;font-stretch:normal;font-size:97.7778px;font-family:Heavitas;-inkscape-font-specification:'Heavitas, Normal';font-variant-ligatures:normal;font-variant-caps:normal;font-variant-numeric:normal;font-variant-east-asian:normal;stroke-width:1.33333;fill:#ffffff"
     x="155.38943"
     y="137.67033">rikool</tspan></text></svg>
